<svg xmlns="http://www.w3.org/2000/svg" xmlns:xlink="http://www.w3.org/1999/xlink" style="margin:auto;background:#16c5ff;display:block;z-index:1;position:relative" width="1084" height="322" preserveAspectRatio="xMidYMid" viewBox="0 0 1084 322">
<defs>
  <pattern id="pid-0.9366121110549728" x="0" y="0" width="204.8" height="204.8" patternUnits="userSpaceOnUse">
    <g transform="scale(0.8)"><path d="M 1 1 L 31 1 L 31 31 L 1 31 Z" fill="#bffff7">
  <animate attributeName="fill" begin="-0.06428595777035628s" values="#bffff7;#41fff5;#00c8ff;#bffff7" keyTimes="0;0.3333333333333333;0.6666666666666666;1" dur="1s" repeatCount="indefinite"></animate>
</path><path d="M 1 33 L 31 33 L 31 63 L 1 63 Z" fill="#bffff7">
  <animate attributeName="fill" begin="-0.6467003050467903s" values="#bffff7;#41fff5;#00c8ff;#bffff7" keyTimes="0;0.3333333333333333;0.6666666666666666;1" dur="1s" repeatCount="indefinite"></animate>
</path><path d="M 1 65 L 31 65 L 31 95 L 1 95 Z" fill="#bffff7">
  <animate attributeName="fill" begin="-0.007331097547680132s" values="#bffff7;#41fff5;#00c8ff;#bffff7" keyTimes="0;0.3333333333333333;0.6666666666666666;1" dur="1s" repeatCount="indefinite"></animate>
</path><path d="M 1 97 L 31 97 L 31 127 L 1 127 Z" fill="#bffff7">
  <animate attributeName="fill" begin="-0.9071566221926832s" values="#bffff7;#41fff5;#00c8ff;#bffff7" keyTimes="0;0.3333333333333333;0.6666666666666666;1" dur="1s" repeatCount="indefinite"></animate>
</path><path d="M 1 129 L 31 129 L 31 159 L 1 159 Z" fill="#bffff7">
  <animate attributeName="fill" begin="-0.7258282080666554s" values="#bffff7;#41fff5;#00c8ff;#bffff7" keyTimes="0;0.3333333333333333;0.6666666666666666;1" dur="1s" repeatCount="indefinite"></animate>
</path><path d="M 1 161 L 31 161 L 31 191 L 1 191 Z" fill="#bffff7">
  <animate attributeName="fill" begin="-0.7647174085435025s" values="#bffff7;#41fff5;#00c8ff;#bffff7" keyTimes="0;0.3333333333333333;0.6666666666666666;1" dur="1s" repeatCount="indefinite"></animate>
</path><path d="M 1 193 L 31 193 L 31 223 L 1 223 Z" fill="#bffff7">
  <animate attributeName="fill" begin="-0.4595421625705758s" values="#bffff7;#41fff5;#00c8ff;#bffff7" keyTimes="0;0.3333333333333333;0.6666666666666666;1" dur="1s" repeatCount="indefinite"></animate>
</path><path d="M 1 225 L 31 225 L 31 255 L 1 255 Z" fill="#bffff7">
  <animate attributeName="fill" begin="-0.12583858814950033s" values="#bffff7;#41fff5;#00c8ff;#bffff7" keyTimes="0;0.3333333333333333;0.6666666666666666;1" dur="1s" repeatCount="indefinite"></animate>
</path><path d="M 33 1 L 63 1 L 63 31 L 33 31 Z" fill="#bffff7">
  <animate attributeName="fill" begin="-0.4318084991997573s" values="#bffff7;#41fff5;#00c8ff;#bffff7" keyTimes="0;0.3333333333333333;0.6666666666666666;1" dur="1s" repeatCount="indefinite"></animate>
</path><path d="M 33 33 L 63 33 L 63 63 L 33 63 Z" fill="#bffff7">
  <animate attributeName="fill" begin="-0.8893318982274199s" values="#bffff7;#41fff5;#00c8ff;#bffff7" keyTimes="0;0.3333333333333333;0.6666666666666666;1" dur="1s" repeatCount="indefinite"></animate>
</path><path d="M 33 65 L 63 65 L 63 95 L 33 95 Z" fill="#bffff7">
  <animate attributeName="fill" begin="-0.6431472494828925s" values="#bffff7;#41fff5;#00c8ff;#bffff7" keyTimes="0;0.3333333333333333;0.6666666666666666;1" dur="1s" repeatCount="indefinite"></animate>
</path><path d="M 33 97 L 63 97 L 63 127 L 33 127 Z" fill="#bffff7">
  <animate attributeName="fill" begin="-0.4825281186655903s" values="#bffff7;#41fff5;#00c8ff;#bffff7" keyTimes="0;0.3333333333333333;0.6666666666666666;1" dur="1s" repeatCount="indefinite"></animate>
</path><path d="M 33 129 L 63 129 L 63 159 L 33 159 Z" fill="#bffff7">
  <animate attributeName="fill" begin="-0.2999563905944207s" values="#bffff7;#41fff5;#00c8ff;#bffff7" keyTimes="0;0.3333333333333333;0.6666666666666666;1" dur="1s" repeatCount="indefinite"></animate>
</path><path d="M 33 161 L 63 161 L 63 191 L 33 191 Z" fill="#bffff7">
  <animate attributeName="fill" begin="-0.19272828386187424s" values="#bffff7;#41fff5;#00c8ff;#bffff7" keyTimes="0;0.3333333333333333;0.6666666666666666;1" dur="1s" repeatCount="indefinite"></animate>
</path><path d="M 33 193 L 63 193 L 63 223 L 33 223 Z" fill="#bffff7">
  <animate attributeName="fill" begin="-0.9841933876367852s" values="#bffff7;#41fff5;#00c8ff;#bffff7" keyTimes="0;0.3333333333333333;0.6666666666666666;1" dur="1s" repeatCount="indefinite"></animate>
</path><path d="M 33 225 L 63 225 L 63 255 L 33 255 Z" fill="#bffff7">
  <animate attributeName="fill" begin="-0.5080076794512463s" values="#bffff7;#41fff5;#00c8ff;#bffff7" keyTimes="0;0.3333333333333333;0.6666666666666666;1" dur="1s" repeatCount="indefinite"></animate>
</path><path d="M 65 1 L 95 1 L 95 31 L 65 31 Z" fill="#bffff7">
  <animate attributeName="fill" begin="-0.32380332570057435s" values="#bffff7;#41fff5;#00c8ff;#bffff7" keyTimes="0;0.3333333333333333;0.6666666666666666;1" dur="1s" repeatCount="indefinite"></animate>
</path><path d="M 65 33 L 95 33 L 95 63 L 65 63 Z" fill="#bffff7">
  <animate attributeName="fill" begin="-0.9342297612489208s" values="#bffff7;#41fff5;#00c8ff;#bffff7" keyTimes="0;0.3333333333333333;0.6666666666666666;1" dur="1s" repeatCount="indefinite"></animate>
</path><path d="M 65 65 L 95 65 L 95 95 L 65 95 Z" fill="#bffff7">
  <animate attributeName="fill" begin="-0.3537577275472701s" values="#bffff7;#41fff5;#00c8ff;#bffff7" keyTimes="0;0.3333333333333333;0.6666666666666666;1" dur="1s" repeatCount="indefinite"></animate>
</path><path d="M 65 97 L 95 97 L 95 127 L 65 127 Z" fill="#bffff7">
  <animate attributeName="fill" begin="-0.7039631612438444s" values="#bffff7;#41fff5;#00c8ff;#bffff7" keyTimes="0;0.3333333333333333;0.6666666666666666;1" dur="1s" repeatCount="indefinite"></animate>
</path><path d="M 65 129 L 95 129 L 95 159 L 65 159 Z" fill="#bffff7">
  <animate attributeName="fill" begin="-0.9649483085370216s" values="#bffff7;#41fff5;#00c8ff;#bffff7" keyTimes="0;0.3333333333333333;0.6666666666666666;1" dur="1s" repeatCount="indefinite"></animate>
</path><path d="M 65 161 L 95 161 L 95 191 L 65 191 Z" fill="#bffff7">
  <animate attributeName="fill" begin="-0.3907309953190736s" values="#bffff7;#41fff5;#00c8ff;#bffff7" keyTimes="0;0.3333333333333333;0.6666666666666666;1" dur="1s" repeatCount="indefinite"></animate>
</path><path d="M 65 193 L 95 193 L 95 223 L 65 223 Z" fill="#bffff7">
  <animate attributeName="fill" begin="-0.4210014309626193s" values="#bffff7;#41fff5;#00c8ff;#bffff7" keyTimes="0;0.3333333333333333;0.6666666666666666;1" dur="1s" repeatCount="indefinite"></animate>
</path><path d="M 65 225 L 95 225 L 95 255 L 65 255 Z" fill="#bffff7">
  <animate attributeName="fill" begin="-0.5779755842931953s" values="#bffff7;#41fff5;#00c8ff;#bffff7" keyTimes="0;0.3333333333333333;0.6666666666666666;1" dur="1s" repeatCount="indefinite"></animate>
</path><path d="M 97 1 L 127 1 L 127 31 L 97 31 Z" fill="#bffff7">
  <animate attributeName="fill" begin="-0.08752742927527635s" values="#bffff7;#41fff5;#00c8ff;#bffff7" keyTimes="0;0.3333333333333333;0.6666666666666666;1" dur="1s" repeatCount="indefinite"></animate>
</path><path d="M 97 33 L 127 33 L 127 63 L 97 63 Z" fill="#bffff7">
  <animate attributeName="fill" begin="-0.48240920588828806s" values="#bffff7;#41fff5;#00c8ff;#bffff7" keyTimes="0;0.3333333333333333;0.6666666666666666;1" dur="1s" repeatCount="indefinite"></animate>
</path><path d="M 97 65 L 127 65 L 127 95 L 97 95 Z" fill="#bffff7">
  <animate attributeName="fill" begin="-0.1367222434329698s" values="#bffff7;#41fff5;#00c8ff;#bffff7" keyTimes="0;0.3333333333333333;0.6666666666666666;1" dur="1s" repeatCount="indefinite"></animate>
</path><path d="M 97 97 L 127 97 L 127 127 L 97 127 Z" fill="#bffff7">
  <animate attributeName="fill" begin="-0.16216974798005324s" values="#bffff7;#41fff5;#00c8ff;#bffff7" keyTimes="0;0.3333333333333333;0.6666666666666666;1" dur="1s" repeatCount="indefinite"></animate>
</path><path d="M 97 129 L 127 129 L 127 159 L 97 159 Z" fill="#bffff7">
  <animate attributeName="fill" begin="-0.2466986429143343s" values="#bffff7;#41fff5;#00c8ff;#bffff7" keyTimes="0;0.3333333333333333;0.6666666666666666;1" dur="1s" repeatCount="indefinite"></animate>
</path><path d="M 97 161 L 127 161 L 127 191 L 97 191 Z" fill="#bffff7">
  <animate attributeName="fill" begin="-0.13501336621339788s" values="#bffff7;#41fff5;#00c8ff;#bffff7" keyTimes="0;0.3333333333333333;0.6666666666666666;1" dur="1s" repeatCount="indefinite"></animate>
</path><path d="M 97 193 L 127 193 L 127 223 L 97 223 Z" fill="#bffff7">
  <animate attributeName="fill" begin="-0.7965649172478739s" values="#bffff7;#41fff5;#00c8ff;#bffff7" keyTimes="0;0.3333333333333333;0.6666666666666666;1" dur="1s" repeatCount="indefinite"></animate>
</path><path d="M 97 225 L 127 225 L 127 255 L 97 255 Z" fill="#bffff7">
  <animate attributeName="fill" begin="-0.5533389322744959s" values="#bffff7;#41fff5;#00c8ff;#bffff7" keyTimes="0;0.3333333333333333;0.6666666666666666;1" dur="1s" repeatCount="indefinite"></animate>
</path><path d="M 129 1 L 159 1 L 159 31 L 129 31 Z" fill="#bffff7">
  <animate attributeName="fill" begin="-0.9122082813599606s" values="#bffff7;#41fff5;#00c8ff;#bffff7" keyTimes="0;0.3333333333333333;0.6666666666666666;1" dur="1s" repeatCount="indefinite"></animate>
</path><path d="M 129 33 L 159 33 L 159 63 L 129 63 Z" fill="#bffff7">
  <animate attributeName="fill" begin="-0.7716888942171705s" values="#bffff7;#41fff5;#00c8ff;#bffff7" keyTimes="0;0.3333333333333333;0.6666666666666666;1" dur="1s" repeatCount="indefinite"></animate>
</path><path d="M 129 65 L 159 65 L 159 95 L 129 95 Z" fill="#bffff7">
  <animate attributeName="fill" begin="-0.6613993073596953s" values="#bffff7;#41fff5;#00c8ff;#bffff7" keyTimes="0;0.3333333333333333;0.6666666666666666;1" dur="1s" repeatCount="indefinite"></animate>
</path><path d="M 129 97 L 159 97 L 159 127 L 129 127 Z" fill="#bffff7">
  <animate attributeName="fill" begin="-0.2550357792463296s" values="#bffff7;#41fff5;#00c8ff;#bffff7" keyTimes="0;0.3333333333333333;0.6666666666666666;1" dur="1s" repeatCount="indefinite"></animate>
</path><path d="M 129 129 L 159 129 L 159 159 L 129 159 Z" fill="#bffff7">
  <animate attributeName="fill" begin="-0.09598993535074851s" values="#bffff7;#41fff5;#00c8ff;#bffff7" keyTimes="0;0.3333333333333333;0.6666666666666666;1" dur="1s" repeatCount="indefinite"></animate>
</path><path d="M 129 161 L 159 161 L 159 191 L 129 191 Z" fill="#bffff7">
  <animate attributeName="fill" begin="-0.24771134867276312s" values="#bffff7;#41fff5;#00c8ff;#bffff7" keyTimes="0;0.3333333333333333;0.6666666666666666;1" dur="1s" repeatCount="indefinite"></animate>
</path><path d="M 129 193 L 159 193 L 159 223 L 129 223 Z" fill="#bffff7">
  <animate attributeName="fill" begin="-0.01883317677603169s" values="#bffff7;#41fff5;#00c8ff;#bffff7" keyTimes="0;0.3333333333333333;0.6666666666666666;1" dur="1s" repeatCount="indefinite"></animate>
</path><path d="M 129 225 L 159 225 L 159 255 L 129 255 Z" fill="#bffff7">
  <animate attributeName="fill" begin="-0.8280751594664117s" values="#bffff7;#41fff5;#00c8ff;#bffff7" keyTimes="0;0.3333333333333333;0.6666666666666666;1" dur="1s" repeatCount="indefinite"></animate>
</path><path d="M 161 1 L 191 1 L 191 31 L 161 31 Z" fill="#bffff7">
  <animate attributeName="fill" begin="-0.8220474745014898s" values="#bffff7;#41fff5;#00c8ff;#bffff7" keyTimes="0;0.3333333333333333;0.6666666666666666;1" dur="1s" repeatCount="indefinite"></animate>
</path><path d="M 161 33 L 191 33 L 191 63 L 161 63 Z" fill="#bffff7">
  <animate attributeName="fill" begin="-0.5469390812963595s" values="#bffff7;#41fff5;#00c8ff;#bffff7" keyTimes="0;0.3333333333333333;0.6666666666666666;1" dur="1s" repeatCount="indefinite"></animate>
</path><path d="M 161 65 L 191 65 L 191 95 L 161 95 Z" fill="#bffff7">
  <animate attributeName="fill" begin="-0.3854210660199189s" values="#bffff7;#41fff5;#00c8ff;#bffff7" keyTimes="0;0.3333333333333333;0.6666666666666666;1" dur="1s" repeatCount="indefinite"></animate>
</path><path d="M 161 97 L 191 97 L 191 127 L 161 127 Z" fill="#bffff7">
  <animate attributeName="fill" begin="-0.20769916266264654s" values="#bffff7;#41fff5;#00c8ff;#bffff7" keyTimes="0;0.3333333333333333;0.6666666666666666;1" dur="1s" repeatCount="indefinite"></animate>
</path><path d="M 161 129 L 191 129 L 191 159 L 161 159 Z" fill="#bffff7">
  <animate attributeName="fill" begin="-0.5896842188459566s" values="#bffff7;#41fff5;#00c8ff;#bffff7" keyTimes="0;0.3333333333333333;0.6666666666666666;1" dur="1s" repeatCount="indefinite"></animate>
</path><path d="M 161 161 L 191 161 L 191 191 L 161 191 Z" fill="#bffff7">
  <animate attributeName="fill" begin="-0.014003113049815274s" values="#bffff7;#41fff5;#00c8ff;#bffff7" keyTimes="0;0.3333333333333333;0.6666666666666666;1" dur="1s" repeatCount="indefinite"></animate>
</path><path d="M 161 193 L 191 193 L 191 223 L 161 223 Z" fill="#bffff7">
  <animate attributeName="fill" begin="-0.20000680085616707s" values="#bffff7;#41fff5;#00c8ff;#bffff7" keyTimes="0;0.3333333333333333;0.6666666666666666;1" dur="1s" repeatCount="indefinite"></animate>
</path><path d="M 161 225 L 191 225 L 191 255 L 161 255 Z" fill="#bffff7">
  <animate attributeName="fill" begin="-0.9471256448029792s" values="#bffff7;#41fff5;#00c8ff;#bffff7" keyTimes="0;0.3333333333333333;0.6666666666666666;1" dur="1s" repeatCount="indefinite"></animate>
</path><path d="M 193 1 L 223 1 L 223 31 L 193 31 Z" fill="#bffff7">
  <animate attributeName="fill" begin="-0.2682124999928799s" values="#bffff7;#41fff5;#00c8ff;#bffff7" keyTimes="0;0.3333333333333333;0.6666666666666666;1" dur="1s" repeatCount="indefinite"></animate>
</path><path d="M 193 33 L 223 33 L 223 63 L 193 63 Z" fill="#bffff7">
  <animate attributeName="fill" begin="-0.1274573311640157s" values="#bffff7;#41fff5;#00c8ff;#bffff7" keyTimes="0;0.3333333333333333;0.6666666666666666;1" dur="1s" repeatCount="indefinite"></animate>
</path><path d="M 193 65 L 223 65 L 223 95 L 193 95 Z" fill="#bffff7">
  <animate attributeName="fill" begin="-0.4065182265353413s" values="#bffff7;#41fff5;#00c8ff;#bffff7" keyTimes="0;0.3333333333333333;0.6666666666666666;1" dur="1s" repeatCount="indefinite"></animate>
</path><path d="M 193 97 L 223 97 L 223 127 L 193 127 Z" fill="#bffff7">
  <animate attributeName="fill" begin="-0.09052626770427552s" values="#bffff7;#41fff5;#00c8ff;#bffff7" keyTimes="0;0.3333333333333333;0.6666666666666666;1" dur="1s" repeatCount="indefinite"></animate>
</path><path d="M 193 129 L 223 129 L 223 159 L 193 159 Z" fill="#bffff7">
  <animate attributeName="fill" begin="-0.24489536953552515s" values="#bffff7;#41fff5;#00c8ff;#bffff7" keyTimes="0;0.3333333333333333;0.6666666666666666;1" dur="1s" repeatCount="indefinite"></animate>
</path><path d="M 193 161 L 223 161 L 223 191 L 193 191 Z" fill="#bffff7">
  <animate attributeName="fill" begin="-0.658183039114135s" values="#bffff7;#41fff5;#00c8ff;#bffff7" keyTimes="0;0.3333333333333333;0.6666666666666666;1" dur="1s" repeatCount="indefinite"></animate>
</path><path d="M 193 193 L 223 193 L 223 223 L 193 223 Z" fill="#bffff7">
  <animate attributeName="fill" begin="-0.5061285604573902s" values="#bffff7;#41fff5;#00c8ff;#bffff7" keyTimes="0;0.3333333333333333;0.6666666666666666;1" dur="1s" repeatCount="indefinite"></animate>
</path><path d="M 193 225 L 223 225 L 223 255 L 193 255 Z" fill="#bffff7">
  <animate attributeName="fill" begin="-0.2925999625745932s" values="#bffff7;#41fff5;#00c8ff;#bffff7" keyTimes="0;0.3333333333333333;0.6666666666666666;1" dur="1s" repeatCount="indefinite"></animate>
</path><path d="M 225 1 L 255 1 L 255 31 L 225 31 Z" fill="#bffff7">
  <animate attributeName="fill" begin="-0.9212571534473497s" values="#bffff7;#41fff5;#00c8ff;#bffff7" keyTimes="0;0.3333333333333333;0.6666666666666666;1" dur="1s" repeatCount="indefinite"></animate>
</path><path d="M 225 33 L 255 33 L 255 63 L 225 63 Z" fill="#bffff7">
  <animate attributeName="fill" begin="-0.23855419276859702s" values="#bffff7;#41fff5;#00c8ff;#bffff7" keyTimes="0;0.3333333333333333;0.6666666666666666;1" dur="1s" repeatCount="indefinite"></animate>
</path><path d="M 225 65 L 255 65 L 255 95 L 225 95 Z" fill="#bffff7">
  <animate attributeName="fill" begin="-0.2853546886672913s" values="#bffff7;#41fff5;#00c8ff;#bffff7" keyTimes="0;0.3333333333333333;0.6666666666666666;1" dur="1s" repeatCount="indefinite"></animate>
</path><path d="M 225 97 L 255 97 L 255 127 L 225 127 Z" fill="#bffff7">
  <animate attributeName="fill" begin="-0.05790430065469043s" values="#bffff7;#41fff5;#00c8ff;#bffff7" keyTimes="0;0.3333333333333333;0.6666666666666666;1" dur="1s" repeatCount="indefinite"></animate>
</path><path d="M 225 129 L 255 129 L 255 159 L 225 159 Z" fill="#bffff7">
  <animate attributeName="fill" begin="-0.4415494458927489s" values="#bffff7;#41fff5;#00c8ff;#bffff7" keyTimes="0;0.3333333333333333;0.6666666666666666;1" dur="1s" repeatCount="indefinite"></animate>
</path><path d="M 225 161 L 255 161 L 255 191 L 225 191 Z" fill="#bffff7">
  <animate attributeName="fill" begin="-0.5376913503235876s" values="#bffff7;#41fff5;#00c8ff;#bffff7" keyTimes="0;0.3333333333333333;0.6666666666666666;1" dur="1s" repeatCount="indefinite"></animate>
</path><path d="M 225 193 L 255 193 L 255 223 L 225 223 Z" fill="#bffff7">
  <animate attributeName="fill" begin="-0.8096310160704518s" values="#bffff7;#41fff5;#00c8ff;#bffff7" keyTimes="0;0.3333333333333333;0.6666666666666666;1" dur="1s" repeatCount="indefinite"></animate>
</path><path d="M 225 225 L 255 225 L 255 255 L 225 255 Z" fill="#bffff7">
  <animate attributeName="fill" begin="-0.3122155708418206s" values="#bffff7;#41fff5;#00c8ff;#bffff7" keyTimes="0;0.3333333333333333;0.6666666666666666;1" dur="1s" repeatCount="indefinite"></animate>
</path></g>
  </pattern>
</defs>
<rect x="0" y="0" width="1084" height="322" fill="url(#pid-0.9366121110549728)"></rect>
</svg>