<svg id="visual" viewBox="0 0 900 600" width="900" height="600" xmlns="http://www.w3.org/2000/svg" xmlns:xlink="http://www.w3.org/1999/xlink" version="1.1"><rect x="0" y="0" width="900" height="600" fill="#001220"></rect><defs><linearGradient id="grad1_0" x1="33.3%" y1="0%" x2="100%" y2="100%"><stop offset="20%" stop-color="#001220" stop-opacity="1"></stop><stop offset="80%" stop-color="#001220" stop-opacity="1"></stop></linearGradient></defs><defs><linearGradient id="grad2_0" x1="0%" y1="0%" x2="66.7%" y2="100%"><stop offset="20%" stop-color="#001220" stop-opacity="1"></stop><stop offset="80%" stop-color="#001220" stop-opacity="1"></stop></linearGradient></defs><g transform="translate(900, 0)"><path d="M0 432.7C-84.3 426.4 -168.7 420.1 -216.3 374.7C-264 329.3 -274.9 245 -304.8 176C-334.8 107 -383.7 53.5 -432.7 0L0 0Z" fill="#E4D00A"></path></g><g transform="translate(0, 600)"><path d="M0 -432.7C62.3 -399 124.6 -365.3 192.5 -333.4C260.4 -301.6 333.7 -271.6 374.7 -216.3C415.7 -161.1 424.2 -80.5 432.7 0L0 0Z" fill="#E4D00A"></path></g></svg>