<?xml version="1.0" standalone="no"?>
<!DOCTYPE svg PUBLIC "-//W3C//DTD SVG 20010904//EN"
 "http://www.w3.org/TR/2001/REC-SVG-20010904/DTD/svg10.dtd">
<svg version="1.0" xmlns="http://www.w3.org/2000/svg"
 width="88.000000pt" height="88.000000pt" viewBox="0 0 88.000000 88.000000"
 preserveAspectRatio="xMidYMid meet">
<metadata>
Created by potrace 1.16, written by Peter Selinger 2001-2019
</metadata>
<g transform="translate(0.000000,88.000000) scale(0.100000,-0.100000)"
fill="#000000" stroke="none">
<path d="M280 630 l-155 -79 315 0 315 0 -155 79 c-85 43 -157 79 -160 79 -3
0 -75 -36 -160 -79z"/>
<path d="M140 511 c0 -13 8 -21 23 -23 21 -3 22 -8 25 -93 4 -109 -2 -135 -28
-135 -13 0 -20 -7 -20 -20 0 -19 7 -20 95 -20 86 0 95 2 95 19 0 10 -9 21 -20
24 -18 5 -20 14 -20 112 0 98 2 107 20 112 11 3 20 14 20 24 0 17 -9 19 -95
19 -87 0 -95 -2 -95 -19z"/>
<path d="M350 511 c0 -10 9 -21 20 -24 18 -5 20 -14 20 -112 0 -98 -2 -107
-20 -112 -11 -3 -20 -14 -20 -24 0 -17 9 -19 90 -19 81 0 90 2 90 19 0 10 -9
21 -20 24 -18 5 -20 14 -20 112 0 98 2 107 20 112 11 3 20 14 20 24 0 17 -9
19 -90 19 -81 0 -90 -2 -90 -19z"/>
<path d="M550 510 c0 -13 7 -20 20 -20 19 0 20 -7 20 -115 0 -108 -1 -115 -20
-115 -13 0 -20 -7 -20 -20 0 -19 7 -20 95 -20 88 0 95 1 95 20 0 13 -7 20 -20
20 -26 0 -32 26 -28 135 3 85 4 90 26 93 14 2 22 10 22 23 0 17 -8 19 -95 19
-88 0 -95 -1 -95 -20z"/>
</g>
</svg>
