<svg version="1.1" viewBox="0.0 0.0 960.0 540.0" fill="none" stroke="none" stroke-linecap="square"
  stroke-miterlimit="10" xmlns:xlink="http://www.w3.org/1999/xlink"
  xmlns="http://www.w3.org/2000/svg">
  <clipPath id="p.0">
    <path d="m0 0l960.0 0l0 540.0l-960.0 0l0 -540.0z" clip-rule="nonzero" />
  </clipPath>
  <g clip-path="url(#p.0)">
    <!-- <path fill="#ffffff" d="m0 0l960.0 0l0 540.0l-960.0 0z" fill-rule="evenodd" /> -->
    <path fill="#eeeeee"
      d="m6.015748 534.7244l182.50381 -104.37796l582.96094 0l182.50378 104.37796z"
      fill-rule="evenodd" />
    <path stroke="#595959" stroke-width="12.0" stroke-linejoin="round" stroke-linecap="butt"
      d="m6.015748 534.7244l182.50381 -104.37796l582.96094 0l182.50378 104.37796z"
      fill-rule="evenodd" />
    <path fill="blue" d="m953.98425 8.0l-84.07245 60.598427l-779.8236 0l-84.07244 -60.598427z"
      fill-rule="evenodd" />
    <path stroke="#595959" stroke-width="12.0" stroke-linejoin="round" stroke-linecap="butt"
      d="m953.98425 8.0l-84.07245 60.598427l-779.8236 0l-84.07244 -60.598427z"
      fill-rule="evenodd" />
    <path fill="#000000" fill-opacity="0.0" d="m91.6273 68.59843l91.62205 365.7638"
      fill-rule="evenodd" />
    <path stroke="#595959" stroke-width="12.0" stroke-linejoin="round" stroke-linecap="butt"
      d="m91.6273 68.59843l91.62205 365.7638" fill-rule="evenodd" />
    <path fill="#000000" fill-opacity="0.0" d="m868.4278 64.58268l-91.62201 365.7638"
      fill-rule="evenodd" />
    <path stroke="#595959" stroke-width="12.0" stroke-linejoin="round" stroke-linecap="butt"
      d="m868.4278 64.58268l-91.62201 365.7638" fill-rule="evenodd" />
  </g>
</svg>