<?xml version="1.0" encoding="UTF-8"?>
<!DOCTYPE svg PUBLIC "-//W3C//DTD SVG 1.1//EN" "http://www.w3.org/Graphics/SVG/1.1/DTD/svg11.dtd">
<svg xmlns="http://www.w3.org/2000/svg" version="1.1" width="140px" height="110px" style="shape-rendering:geometricPrecision; text-rendering:geometricPrecision; image-rendering:optimizeQuality; fill-rule:evenodd; clip-rule:evenodd" xmlns:xlink="http://www.w3.org/1999/xlink">
<g><path style="opacity:1" fill="#0c0c0c" d="M 45.5,18.5 C 48.8333,18.5 52.1667,18.5 55.5,18.5C 55.5,21.8333 55.5,25.1667 55.5,28.5C 51.9581,28.1872 48.6248,28.5206 45.5,29.5C 45.5,45.1667 45.5,60.8333 45.5,76.5C 42.1667,76.5 38.8333,76.5 35.5,76.5C 35.5,61.1667 35.5,45.8333 35.5,30.5C 33.901,30.2322 32.5676,30.5655 31.5,31.5C 28.2722,32.5456 24.9389,33.2122 21.5,33.5C 20.5,33.5 19.5,33.5 18.5,33.5C 18.0157,29.1726 18.6823,25.1726 20.5,21.5C 28.718,19.6597 37.0514,18.6597 45.5,18.5 Z"/></g>
<g><path style="opacity:1" fill="#4da8d8" d="M 45.5,18.5 C 65.3922,16.973 85.3922,17.473 105.5,20C 110.758,20.6141 115.758,21.7808 120.5,23.5C 121.089,27.9707 120.423,31.9707 118.5,35.5C 117.209,35.7373 116.209,35.404 115.5,34.5C 113.562,32.8372 111.228,32.1706 108.5,32.5C 87.6378,28.7447 66.6378,27.7447 45.5,29.5C 48.6248,28.5206 51.9581,28.1872 55.5,28.5C 55.5,25.1667 55.5,21.8333 55.5,18.5C 52.1667,18.5 48.8333,18.5 45.5,18.5 Z"/></g>
<g><path style="opacity:0.415" fill="#fcfcfc" d="M 20.5,21.5 C 18.6823,25.1726 18.0157,29.1726 18.5,33.5C 19.5,33.5 20.5,33.5 21.5,33.5C 20.4324,34.4345 19.099,34.7678 17.5,34.5C 17.5,30.1667 17.5,25.8333 17.5,21.5C 18.5,21.5 19.5,21.5 20.5,21.5 Z"/></g>
<g><path style="opacity:0.413" fill="#fefffe" d="M 120.5,23.5 C 121.485,27.6344 121.818,31.9677 121.5,36.5C 120.209,36.7373 119.209,36.404 118.5,35.5C 120.423,31.9707 121.089,27.9707 120.5,23.5 Z"/></g>
<g><path style="opacity:0.36" fill="#fdfdfd" d="M 31.5,31.5 C 32.5676,30.5655 33.901,30.2322 35.5,30.5C 35.5,45.8333 35.5,61.1667 35.5,76.5C 38.8333,76.5 42.1667,76.5 45.5,76.5C 42.0381,77.4816 38.3714,77.815 34.5,77.5C 34.5,62.1667 34.5,46.8333 34.5,31.5C 33.5,31.5 32.5,31.5 31.5,31.5 Z"/></g>
<g><path style="opacity:0.973" fill="#b0def3" d="M 108.5,32.5 C 111.228,32.1706 113.562,32.8372 115.5,34.5C 112.933,34.2785 110.599,33.6118 108.5,32.5 Z"/></g>
<g><path style="opacity:0.235" fill="#fefffe" d="M 66.5,41.5 C 62.6707,40.931 59.3373,41.5977 56.5,43.5C 55.596,42.791 55.2627,41.791 55.5,40.5C 59.3714,40.185 63.0381,40.5184 66.5,41.5 Z"/></g>
<g><path style="opacity:0.197" fill="#f8f8f8" d="M 89.5,42.5 C 85.695,40.9915 82.0284,41.3248 78.5,43.5C 78.5,42.5 78.5,41.5 78.5,40.5C 82.5546,40.1758 86.5546,40.5091 90.5,41.5C 90.3764,42.1067 90.0431,42.44 89.5,42.5 Z"/></g>
<g><path style="opacity:0.29" fill="#e8e8e8" d="M 100.5,41.5 C 107.313,40.5088 114.313,40.1755 121.5,40.5C 121.5,43.8333 121.5,47.1667 121.5,50.5C 117.5,50.5 113.5,50.5 109.5,50.5C 112.962,49.5184 116.629,49.185 120.5,49.5C 120.5,46.8333 120.5,44.1667 120.5,41.5C 113.833,41.5 107.167,41.5 100.5,41.5 Z"/></g>
<g><path style="opacity:1" fill="#1d1d1d" d="M 66.5,41.5 C 68.6507,47.1412 70.8173,52.8078 73,58.5C 74.5678,53.2862 76.4011,48.2862 78.5,43.5C 82.0284,41.3248 85.695,40.9915 89.5,42.5C 85.3089,56.5741 80.8089,70.5741 76,84.5C 74.5945,87.4086 72.4278,89.4086 69.5,90.5C 65.1667,90.5 60.8333,90.5 56.5,90.5C 56.5,87.8333 56.5,85.1667 56.5,82.5C 59.3854,82.8064 62.0521,82.4731 64.5,81.5C 66.3907,79.1643 66.8907,76.4976 66,73.5C 62.5241,63.5735 59.3575,53.5735 56.5,43.5C 59.3373,41.5977 62.6707,40.931 66.5,41.5 Z"/></g>
<g><path style="opacity:1" fill="#010101" d="M 100.5,41.5 C 107.167,41.5 113.833,41.5 120.5,41.5C 120.5,44.1667 120.5,46.8333 120.5,49.5C 116.629,49.185 112.962,49.5184 109.5,50.5C 109.5,51.1667 109.167,51.5 108.5,51.5C 107.507,59.6499 107.174,67.9832 107.5,76.5C 104.167,76.5 100.833,76.5 97.5,76.5C 97.5,65.8333 97.5,55.1667 97.5,44.5C 98.8333,43.8333 99.8333,42.8333 100.5,41.5 Z"/></g>
<g><path style="opacity:0.21" fill="#f2f2f2" d="M 100.5,41.5 C 99.8333,42.8333 98.8333,43.8333 97.5,44.5C 97.5,42.5 98.5,41.5 100.5,41.5 Z"/></g>
<g><path style="opacity:0.127" fill="#fefffe" d="M 97.5,44.5 C 97.5,55.1667 97.5,65.8333 97.5,76.5C 100.833,76.5 104.167,76.5 107.5,76.5C 107.174,67.9832 107.507,59.6499 108.5,51.5C 108.5,60.1667 108.5,68.8333 108.5,77.5C 104.5,77.5 100.5,77.5 96.5,77.5C 96.1721,66.3206 96.5054,55.3206 97.5,44.5 Z"/></g>
<g><path style="opacity:0.71" fill="#8c8c8c" d="M 64.5,81.5 C 62.0521,82.4731 59.3854,82.8064 56.5,82.5C 56.5,85.1667 56.5,87.8333 56.5,90.5C 60.8333,90.5 65.1667,90.5 69.5,90.5C 65.03,91.4861 60.3633,91.8195 55.5,91.5C 55.5,88.1667 55.5,84.8333 55.5,81.5C 58.5,81.5 61.5,81.5 64.5,81.5 Z"/></g>
</svg>
