<svg id="visual" viewBox="0 0 900 600" width="900" height="600" xmlns="http://www.w3.org/2000/svg" xmlns:xlink="http://www.w3.org/1999/xlink" version="1.1"><rect x="0" y="0" width="900" height="600" fill="#Fff"></rect><path d="M0 486L100 486L100 466L200 466L200 544L300 544L300 530L400 530L400 461L500 461L500 497L600 497L600 519L700 519L700 480L800 480L800 512L900 512L900 491L900 601L900 601L800 601L800 601L700 601L700 601L600 601L600 601L500 601L500 601L400 601L400 601L300 601L300 601L200 601L200 601L100 601L100 601L0 601Z" fill="#2B2E63" stroke-linecap="square" stroke-linejoin="miter"></path></svg>