<svg xmlns="http://www.w3.org/2000/svg" version="1.1" width="512px" height="512px"
  style="shape-rendering:geometricPrecision; text-rendering:geometricPrecision; image-rendering:optimizeQuality; fill-rule:evenodd; clip-rule:evenodd"
  xmlns:xlink="http://www.w3.org/1999/xlink">
  <g>
    <path style="opacity:0.98" fill="#000000"
      d="M 133.5,-0.5 C 214.833,-0.5 296.167,-0.5 377.5,-0.5C 391.476,3.31014 400.309,12.3101 404,26.5C 404.667,179.167 404.667,331.833 404,484.5C 400.309,498.69 391.476,507.69 377.5,511.5C 296.167,511.5 214.833,511.5 133.5,511.5C 119.524,507.69 110.691,498.69 107,484.5C 106.333,331.833 106.333,179.167 107,26.5C 110.691,12.3101 119.524,3.31014 133.5,-0.5 Z M 218.5,24.5 C 243.169,24.3334 267.836,24.5 292.5,25C 296.037,26.8265 296.371,29.1598 293.5,32C 268.167,32.6667 242.833,32.6667 217.5,32C 214.709,29.0156 215.042,26.5156 218.5,24.5 Z M 131.5,54.5 C 214.167,54.5 296.833,54.5 379.5,54.5C 379.5,185.5 379.5,316.5 379.5,447.5C 296.833,447.5 214.167,447.5 131.5,447.5C 131.5,316.5 131.5,185.5 131.5,54.5 Z M 250.5,460.5 C 262.88,459.39 270.213,464.89 272.5,477C 269.873,490.631 261.873,495.631 248.5,492C 237.113,484.242 235.78,475.075 244.5,464.5C 246.565,463.143 248.565,461.81 250.5,460.5 Z" />
  </g>
</svg>